HIERARCHY
ROOT hip
{
	OFFSET 0.000000 0.000000 0.000000
	CHANNELS 6 Xposition Yposition Zposition Xrotation Zrotation Yrotation 
	JOINT abdomen
	{
		OFFSET 0.000000 3.422050 0.000000
		CHANNELS 3 Xrotation Zrotation Yrotation 
		JOINT chest
		{
			OFFSET 0.000000 8.486693 -0.6844110
			CHANNELS 3 Xrotation Zrotation Yrotation 
			JOINT neck
			{
				OFFSET 0.000000 10.26616 -0.2737640
				CHANNELS 3 Xrotation Zrotation Yrotation 
				JOINT head
				{
					OFFSET 0.000000 3.148285 0.000000
					CHANNELS 3 Xrotation Zrotation Yrotation 
					End Site
					{
						OFFSET 0.000000 3.148289 0.000000
					}
				}
			}
			JOINT lCollar
			{
				OFFSET 3.422053 6.707223 -0.8212930
				CHANNELS 3 Yrotation Zrotation Xrotation 
				JOINT lShldr
				{
					OFFSET 3.285171 0.000000 0.000000
					CHANNELS 3 Zrotation Yrotation Xrotation 
					JOINT lForeArm
					{
						OFFSET 10.12928 0.000000 0.000000
						CHANNELS 3 Yrotation Zrotation Xrotation 
						JOINT lHand
						{
							OFFSET 8.486692 0.000000 0.000000
							CHANNELS 3 Zrotation Yrotation Xrotation 
							End Site
							{
								OFFSET 4.106464 0.000000 0.000000
							}
						}
					}
				}
			}
			JOINT rCollar
			{
				OFFSET -3.558935 6.707223 -0.8212930
				CHANNELS 3 Yrotation Zrotation Xrotation 
				JOINT rShldr
				{
					OFFSET -3.148289 0.000000 0.000000
					CHANNELS 3 Zrotation Yrotation Xrotation 
					JOINT rForeArm
					{
						OFFSET -10.26616 0.000000 0.000000
						CHANNELS 3 Yrotation Zrotation Xrotation 
						JOINT rHand
						{
							OFFSET -8.349810 0.000000 0.000000
							CHANNELS 3 Zrotation Yrotation Xrotation 
							End Site
							{
								OFFSET -4.106464 0.000000 0.000000
							}
						}
					}
				}
			}
		}
	}
	JOINT lThigh
	{
		OFFSET 5.338403 -1.642589 1.368821
		CHANNELS 3 Xrotation Zrotation Yrotation 
		JOINT lShin
		{
			OFFSET -2.053232 -20.12167 0.000000
			CHANNELS 3 Xrotation Zrotation Yrotation 
			JOINT lFoot
			{
				OFFSET 0.000000 -19.30038 -1.231939
				CHANNELS 3 Xrotation Yrotation Zrotation 
				End Site
				{
					OFFSET 0.000000 -2.463878 4.653993
				}
			}
		}
	}
	JOINT rThigh
	{
		OFFSET -5.338403 -1.642589 1.368821
		CHANNELS 3 Xrotation Zrotation Yrotation 
		JOINT rShin
		{
			OFFSET 2.053232 -20.12167 0.000000
			CHANNELS 3 Xrotation Zrotation Yrotation 
			JOINT rFoot
			{
				OFFSET 0.000000 -19.30038 -1.231939
				CHANNELS 3 Xrotation Yrotation Zrotation 
				End Site
				{
					OFFSET 0.000000 -2.463878 4.653993
				}
			}
		}
	}
}
MOTION
Frames:	10
Frame Time:	0.03333333
0.000000 43.52852 0.000000 0.000000 0.000000 0.000000 0.000000 0.000000 0.000000 0.000000 0.000000 0.000000 0.000000 0.000000 0.000000 0.000000 0.000000 0.000000 0.000000 0.000000 0.000000 0.000000 0.000000 0.000000 0.000000 0.000000 0.000000 0.000000 0.000000 0.000000 0.000000 0.000000 0.000000 0.000000 0.000000 0.000000 0.000000 0.000000 0.000000 0.000000 0.000000 0.000000 0.000000 0.000000 0.000000 0.000000 0.000000 0.000000 0.000000 0.000000 0.000000 0.000000 0.000000 0.000000 0.000000 0.000000 0.000000 0.000000 0.000000 0.000000 
0.000000 43.52852 0.000000 1.000000 0.000000 0.000000 1.000000 0.000000 0.000000 1.000000 0.000000 0.000000 1.000000 0.000000 0.000000 1.000000 0.000000 0.000000 0.000000 0.000000 1.000000 -74.00000 11.75000 0.000000 -80.00000 0.000000 0.000000 0.000000 0.000000 1.000000 0.000000 0.000000 1.000000 74.00000 -4.250000 0.000000 80.00000 0.000000 0.000000 0.000000 0.000000 1.000000 -2.000000 0.000000 0.000000 8.000000 0.000000 0.000000 -8.000000 0.000000 0.000000 -2.000000 0.000000 0.000000 8.000000 0.000000 0.000000 -8.000000 0.000000 0.000000 
0.000000 43.52852 0.000000 1.000000 0.000000 0.000000 1.000000 0.000000 0.000000 1.000000 0.000000 0.000000 1.000000 0.000000 0.000000 1.000000 0.000000 0.000000 0.000000 0.000000 1.000000 -74.00000 6.125000 0.000000 -80.00000 0.000000 0.000000 0.000000 0.000000 1.000000 0.000000 0.000000 1.000000 74.00000 -9.875000 0.000000 80.00000 0.000000 0.000000 0.000000 0.000000 1.000000 -2.000000 0.000000 0.000000 8.000000 0.000000 0.000000 -8.000000 0.000000 0.000000 -11.33333 0.000000 0.000000 25.00000 0.000000 0.000000 -6.500000 0.000000 0.000000 
0.000000 43.52852 0.000000 1.000000 0.000000 0.000000 1.000000 0.000000 0.000000 1.000000 0.000000 0.000000 1.000000 0.000000 0.000000 1.000000 0.000000 0.000000 0.000000 0.000000 1.000000 -74.00000 0.5000000 0.000000 -80.00000 0.000000 0.000000 0.000000 0.000000 1.000000 0.000000 0.000000 1.000000 74.00000 -15.50000 0.000000 80.00000 0.000000 0.000000 0.000000 0.000000 1.000000 -2.000000 0.000000 0.000000 8.000000 0.000000 0.000000 -8.000000 0.000000 0.000000 -20.66667 0.000000 0.000000 42.00000 0.000000 0.000000 -5.000000 0.000000 0.000000 
0.000000 43.52852 0.000000 1.000000 0.000000 0.000000 1.000000 0.000000 0.000000 1.000000 0.000000 0.000000 1.000000 0.000000 0.000000 1.000000 0.000000 0.000000 0.000000 0.000000 1.000000 -74.00000 -5.125000 0.000000 -80.00000 0.000000 0.000000 0.000000 0.000000 1.000000 0.000000 0.000000 1.000000 74.00000 -21.12500 0.000000 80.00000 0.000000 0.000000 0.000000 0.000000 1.000000 -2.000000 0.000000 0.000000 8.000000 0.000000 0.000000 -8.000000 0.000000 0.000000 -30.00000 0.000000 0.000000 59.00000 0.000000 0.000000 -3.500000 0.000000 0.000000 
0.000000 43.52852 0.000000 1.000000 0.000000 0.000000 1.000000 0.000000 0.000000 1.000000 0.000000 0.000000 1.000000 0.000000 0.000000 1.000000 0.000000 0.000000 0.000000 0.000000 1.000000 -74.00000 -10.75000 0.000000 -80.00000 0.000000 0.000000 0.000000 0.000000 1.000000 0.000000 0.000000 1.000000 74.00000 -26.75000 0.000000 80.00000 0.000000 0.000000 0.000000 0.000000 1.000000 -2.000000 0.000000 0.000000 8.000000 0.000000 0.000000 -8.000000 0.000000 0.000000 -39.33333 0.000000 0.000000 76.00000 0.000000 0.000000 -2.000000 0.000000 0.000000 
0.000000 43.52852 0.000000 1.000000 0.000000 0.000000 1.000000 0.000000 0.000000 1.000000 0.000000 0.000000 1.000000 0.000000 0.000000 1.000000 0.000000 0.000000 0.000000 0.000000 1.000000 -74.00000 -16.37500 0.000000 -80.00000 0.000000 0.000000 0.000000 0.000000 1.000000 0.000000 0.000000 1.000000 74.00000 -32.37500 0.000000 80.00000 0.000000 0.000000 0.000000 0.000000 1.000000 -2.000000 0.000000 0.000000 8.000000 0.000000 0.000000 -8.000000 0.000000 0.000000 -48.66667 0.000000 0.000000 93.00000 0.000000 0.000000 -0.5000000 0.000000 0.000000 
0.000000 43.52852 0.000000 1.000000 0.000000 0.000000 1.000000 0.000000 0.000000 1.000000 0.000000 0.000000 1.000000 0.000000 0.000000 1.000000 0.000000 0.000000 0.000000 0.000000 1.000000 -74.00000 -22.00000 0.000000 -80.00000 0.000000 0.000000 0.000000 0.000000 1.000000 0.000000 0.000000 1.000000 74.00000 -38.00000 0.000000 80.00000 0.000000 0.000000 0.000000 0.000000 1.000000 -2.000000 0.000000 0.000000 8.000000 0.000000 0.000000 -8.000000 0.000000 0.000000 -58.00000 0.000000 0.000000 110.0000 0.000000 0.000000 1.000000 0.000000 0.000000 
0.000000 43.52852 0.000000 1.000000 0.000000 0.000000 1.000000 0.000000 0.000000 1.000000 0.000000 0.000000 1.000000 0.000000 0.000000 1.000000 0.000000 0.000000 0.000000 0.000000 1.000000 -74.00000 -18.25000 0.000000 -80.00000 0.000000 0.000000 0.000000 0.000000 1.000000 0.000000 0.000000 1.000000 74.00000 -34.25000 0.000000 80.00000 0.000000 0.000000 0.000000 0.000000 1.000000 -2.000000 0.000000 0.000000 8.000000 0.000000 0.000000 -8.000000 0.000000 0.000000 -50.00000 0.000000 0.000000 95.42857 0.000000 0.000000 -0.2857143 0.000000 0.000000 
0.000000 43.52852 0.000000 1.000000 0.000000 0.000000 1.000000 0.000000 0.000000 1.000000 0.000000 0.000000 1.000000 0.000000 0.000000 1.000000 0.000000 0.000000 0.000000 0.000000 1.000000 -74.00000 -14.50000 0.000000 -80.00000 0.000000 0.000000 0.000000 0.000000 1.000000 0.000000 0.000000 1.000000 74.00000 -30.50000 0.000000 80.00000 0.000000 0.000000 0.000000 0.000000 1.000000 -2.000000 0.000000 0.000000 8.000000 0.000000 0.000000 -8.000000 0.000000 0.000000 -42.00000 0.000000 0.000000 80.85714 0.000000 0.000000 -1.571429 0.000000 0.000000 
